<mxfile host="app.diagrams.net" modified="2024-04-25T15:16:37.555Z" agent="Mozilla/5.0 (Windows NT 10.0; Win64; x64) AppleWebKit/537.36 (KHTML, like Gecko) Chrome/124.0.0.0 Safari/537.36" version="24.3.0" etag="SRBvRceu4cHJqw2sBy2N" type="github">
  <diagram name="Page-1" id="4B_bku7JbQwkINpkaTxW">
    <mxGraphModel>
      <root>
        <mxCell id="0" />
        <mxCell id="1" parent="0" />
      </root>
    </mxGraphModel>
  </diagram>
</mxfile>
